PathFileType	4	(X/Y/Z)	C:/Users/beibeiliu/ov580/test_trc/User3\sequence.26_training_dense_left.trc
DataRate	CameraRate	NumFrames	NumMarkers	Units	OrigDataRate	OrigDataStartFrame	OrigNumFrames
120	120	19	19	mm	120	167	266
Frame#	Time	ThumbCMC			ThumbMCP			ThumbIP			ThumbTip			IndexMCP			IndexPIP			IndexTip			MiddleMCP			MiddlePIP			MiddleTip			RingMCP			RingPIP			RingTip			PinkyMCP			PinkyPIP			PinkyTip			BackHand1			BackHand2			BackHand3	
		X0	Y0	Z0	X1	Y1	Z1	X2	Y2	Z2	X3	Y3	Z3	X4	Y4	Z4	X5	Y5	Z5	X6	Y6	Z6	X7	Y7	Z7	X8	Y8	Z8	X9	Y9	Z9	X10	Y10	Z10	X11	Y11	Z11	X12	Y12	Z12	X13	Y13	Z13	X14	Y14	Z14	X15	Y15	Z15	X16	Y16	Z16	X17	Y17	Z17	X18	Y18	Z18	
166	1.38333	-222.929	11.3669	-13.4552	-199.128	12.6224	-37.516	-174.998	-2.16688	-56.8929	-159.36	-22.681	-51.5556	-203.07	-23.8506	-75.2114	-190.701	-29.165	-100.3	-182.828	-33.962	-124.722	-173.519	-36.4085	-68.4883	-149.906	-27.1525	-81.0231	-122.189	-13.2618	-91.7349	-161.869	-32.7174	-37.7704	-146.942	-7.04451	-30.9317	-148.934	12.7834	-7.06314	-156.426	-35.9702	-21.3074	-152.033	-11.2229	-13.9906	-159.68	5.76732	4.84468	-210.177	-54.4365	-12.1876	-226.977	-43.911	12.699	-234.657	-23.1348	-18.7065	
167	1.39167	-227.596	11.5249	-11.2967	-202.695	9.13206	-39.4152	-180.388	0.129041	-56.9994	-159.981	-21.5293	-56.9575	-205.896	-26.759	-80.4091	-194.163	-31.0924	-101.757	-184.763	-36.0127	-123.818	-176.655	-37.0901	-67.6869	-155.599	-27.1716	-81.4243	-125.641	-13.0732	-92.6665	-168.346	-30.6172	-41.0455	-149.027	-5.41664	-32.2159	-153.728	16.6153	-8.32094	-162.322	-36.219	-25.3357	-152.375	-12.644	-14.1512	-161.977	6.51929	4.38559	-211.189	-54.6744	-15.2699	-226.819	-45.2018	13.141	-236.488	-24.8601	-19.385	
168	1.4	-228.237	7.07818	-13.3682	-207.644	12.06	-37.5287	-183.745	-3.83655	-55.6018	-163.058	-18.4737	-60.7334	-210.132	-26.7404	-79.2292	-197.951	-32.0019	-102.063	-189.211	-37.8961	-123.007	-180.912	-34.8388	-70.4598	-159.18	-26.7864	-83.5951	-129.549	-10.2087	-97.6187	-166.353	-26.0232	-42.6403	-154.158	-1.33139	-35.6995	-157.088	17.4928	-14.2553	-163.217	-34.5013	-25.6731	-156.81	-7.36046	-17.5264	-167.834	7.98311	-1.42783	-213.044	-52.9406	-13.6948	-225.657	-47.0801	13.7144	-241.532	-26.9752	-17.115	
169	1.40833	-232.967	11.6946	-11.8422	-209.857	7.38884	-38.5183	-187.875	-5.32895	-56.7067	-169.038	-16.9228	-60.5761	-214.599	-26.9163	-79.4686	-205.964	-29.1356	-103.337	-197.091	-34.5892	-123.505	-184.669	-37.5235	-69.2159	-163.983	-24.0411	-88.393	-139.63	-11.0817	-100.067	-172.703	-29.826	-44.6738	-153.374	-5.09216	-36.6972	-158.217	20.2306	-12.1658	-166.985	-32.8121	-29.8708	-157.109	-9.75467	-17.8058	-168.439	7.86901	-1.22191	-215.431	-51.4104	-14.3213	-230.709	-46.2529	13.6241	-241.73	-29.0038	-15.9825	
170	1.41667	-233.776	8.92932	-15.4419	-212.572	12.2405	-41.9092	-192.304	-0.407831	-58.9553	-170.531	-20.3955	-63.3465	-217.079	-28.4481	-81.8039	-210.33	-30.8086	-102.168	-202.61	-37.8758	-124.849	-187.418	-38.148	-72.4677	-168.921	-25.5515	-91.4519	-142.215	-14.592	-100.271	-170.702	-28.3305	-46.1417	-157.113	-2.43802	-39.1931	-159.84	16.7619	-18.9651	-166.745	-36.9309	-29.3726	-160.397	-12.5457	-24.4106	-172.944	8.13939	-4.16565	-214.816	-53.3376	-12.5994	-229.258	-47.8457	14.9061	-244.052	-28.714	-14.2197	
171	1.425	-235.727	9.97074	-13.4643	-214.296	8.85345	-39.6911	-194.173	-6.35446	-59.1317	-177.286	-19.4457	-63.5266	-222.223	-28.4025	-82.3887	-214.527	-32.7804	-101.608	-209.518	-40.1692	-126.016	-193.263	-38.7321	-73.5568	-175.99	-29.1489	-89.6842	-147.563	-15.0723	-106.533	-178.388	-30.2976	-49.0289	-160.383	-8.7918	-43.917	-161.476	17.5634	-19.3315	-170.859	-39.2359	-31.2865	-161.253	-12.1296	-26.2751	-171.398	4.76756	-8.67706	-216.312	-54.5817	-16.401	-232.56	-46.2273	16.3438	-247.089	-24.3921	-14.4775	
172	1.43333	-235.003	9.74928	-12.488	-215.42	11.9021	-42.116	-196.797	-6.4795	-61.3372	-176.642	-20.9827	-68.3494	-227.503	-27.4234	-77.4762	-220.757	-33.4527	-101.298	-217.905	-37.4051	-124.804	-197.246	-40.4157	-71.2543	-178.79	-30.0627	-92.3918	-149.468	-17.3669	-109.31	-179.304	-29.846	-51.6212	-161.489	-7.37657	-44.0793	-160.269	12.2734	-20.7189	-170.929	-41.2914	-31.6874	-162.803	-13.567	-25.7305	-173.574	4.74365	-3.88175	-222.201	-52.1055	-18.003	-231.692	-47.7682	14.1074	-245.933	-27.736	-10.9576	
173	1.44167	-232.247	7.24858	-11.5442	-214.408	6.01231	-40.3581	-196.593	-7.30124	-65.0027	-180.938	-25.0639	-67.3283	-228.894	-28.6181	-76.737	-225.223	-33.4574	-105.45	-220.326	-41.3689	-124.322	-200.712	-41.6637	-72.7346	-179.731	-33.8189	-94.8458	-153.249	-21.6982	-112.459	-184.521	-35.0513	-50.4229	-160.73	-15.969	-45.1929	-160.206	11.2703	-25.6195	-174.614	-42.9031	-35.6926	-164.835	-17.7469	-27.268	-172.744	-0.642712	-4.43781	-227.706	-52.185	-16.1415	-232.771	-45.6221	11.5621	-249.276	-23.6155	-15.2463	
174	1.45	-228.169	8.99121	-10.9655	-213.604	5.284	-39.6028	-197.637	-8.4354	-65.4728	-185.859	-29.5801	-66.7331	-234.04	-22.2684	-76.2935	-228.357	-31.2241	-103.223	-227.195	-37.251	-128.039	-205.699	-42.4427	-74.5895	-182.833	-37.9299	-96.0237	-159.433	-31.1523	-111.305	-183.776	-40.4793	-51.4464	-163.66	-17.7602	-48.205	-157.288	1.97361	-25.1416	-177.784	-48.2212	-36.6232	-166.221	-24.9941	-30.9239	-171.759	-7.11501	-7.66267	-229.506	-54.9851	-17.4081	-236.022	-46.1132	13.5284	-248.84	-20.0918	-11.9745	
175	1.45833	-222.908	12.0514	-5.96	-208.955	9.61843	-40.7454	-197.525	-8.67821	-62.2601	-185.299	-29.0794	-73.0219	-234.63	-20.9275	-75.6757	-235.708	-20.506	-99.9399	-235.705	-26.9595	-126.597	-210.711	-42.0551	-76.3391	-192.148	-41.04	-94.859	-162.076	-34.6591	-115.415	-190.05	-42.2524	-53.9371	-165.106	-24.0512	-50.7383	-155.325	-7.46441	-29.5936	-181.863	-53.1168	-39.3886	-167.159	-33.2566	-32.7039	-167.966	-12.3285	-11.763	-234.358	-48.1686	-13.8237	-238.338	-40.958	13.0143	-247.52	-14.5901	-8.9892	
176	1.46667	-216.774	13.1255	-7.95368	-203.875	11.6515	-38.7353	-195.226	-5.14004	-62.1587	-187.996	-28.2192	-72.1723	-235.893	-13.6383	-73.6942	-236.544	-17.3408	-102.037	-238.566	-18.8343	-123.903	-215.183	-37.9284	-76.7054	-197.769	-36.4504	-96.2574	-168.063	-35.2906	-118.971	-194.536	-44.1205	-54.884	-166.418	-34.5429	-52.2166	-153.765	-12.8559	-27.8174	-190.953	-52.968	-43.1217	-167.423	-37.9209	-33.0872	-165.788	-19.5966	-13.3199	-237.718	-46.153	-14.6922	-239.61	-39.5424	14.1606	-245.95	-9.07607	-10.1279	
177	1.475	-210.192	17.3413	-3.90153	-198.23	13.3712	-36.7066	-193.581	-1.60171	-60.141	-192.424	-29.4078	-71.2635	-235.934	-2.38518	-75.5133	-236.734	-5.43263	-98.7685	-238.651	-5.75007	-126.097	-219.54	-31.0521	-74.6509	-198.477	-34.6693	-99.6717	-173.346	-36.8907	-117.171	-199.246	-40.2278	-59.26	-170.708	-38.6349	-55.6615	-152.301	-22.0055	-29.8499	-198.067	-58.5297	-42.487	-172.173	-45.8274	-37.2869	-164.949	-26.4119	-14.5148	-241.449	-41.42	-18.7441	-240.053	-37.7336	17.207	-243.067	-5.25359	-4.94045	
178	1.48333	-200.626	15.8562	-0.259027	-193.843	9.75546	-31.1087	-189.524	-0.486126	-62.4448	-191.498	-24.7617	-73.7306	-228.966	8.07026	-68.9786	-232.862	5.67207	-95.1098	-235.636	9.42999	-123.851	-219.437	-20.1273	-79.3266	-200.529	-26.4691	-100.701	-175.913	-33.3358	-119.109	-205.109	-37.7428	-60.1012	-172.966	-44.2408	-56.4797	-153.343	-32.0246	-34.2477	-201.963	-56.5747	-46.6168	-179.898	-48.581	-41.9756	-166.467	-32.2918	-20.35	-243.36	-34.6237	-17.5262	-243.154	-28.4567	13.3862	-237.551	3.83928	-2.6343	
179	1.49167	-191.245	11.6538	6.21436	-182.001	10.7407	-24.7633	-184.865	-1.39795	-56.3973	-190.449	-21.0228	-68.2935	-222.184	15.4221	-69.2018	-222.424	20.6432	-88.9163	-227.439	17.9037	-114.424	-218.836	-11.0541	-74.4665	-203.778	-18.7399	-97.0854	-179.731	-31.3106	-117.776	-208.129	-38.0896	-58.4068	-178.698	-43.4963	-59.5892	-155.916	-41.2437	-33.4251	-206.8	-53.8867	-48.2279	-181.368	-49.3367	-42.3378	-168.07	-40.145	-20.3158	-243.479	-25.5233	-14.4463	-240.083	-23.3589	17.2371	-229.905	6.56977	2.77876	
180	1.5	-185.1	7.82618	7.98868	-173.637	8.19614	-21.7323	-177.856	-0.658634	-57.7278	-191.178	-22.5481	-68.3332	-212.767	18.2351	-61.4202	-213.038	23.669	-89.3437	-213.989	30.4753	-112.924	-211.868	-4.94843	-75.8856	-197.676	-13.9633	-99.5435	-176.376	-27.8957	-119.385	-204.578	-34.5767	-61.5845	-179.215	-42.4471	-60.9126	-158.439	-46.8956	-32.0302	-208.676	-46.0824	-49.8133	-184.484	-50.3399	-43.5824	-169.104	-44.1274	-20.7788	-239.603	-13.0675	-16.2689	-242.419	-18.4102	13.5144	-222.255	7.26472	3.96996	
181	1.50833	-179.596	3.42414	9.90384	-165.594	5.65433	-22.9504	-167.384	-1.22803	-51.7396	-184.085	-19.6681	-68.487	-200.183	25.5942	-62.7795	-198.534	28.338	-83.1135	-197.459	37.0904	-111.969	-206.19	-1.42639	-72.3701	-191.456	-7.99191	-94.5802	-171.03	-28.7785	-118.524	-205.341	-29.5417	-58.0797	-175.156	-45.9677	-56.4742	-160.991	-50.2129	-31.162	-212.143	-46.0508	-47.8193	-183.109	-47.73	-42.1189	-169.353	-45.5775	-16.8184	-234.948	-7.06035	-15.4826	-237.547	-15.2722	17.2741	-215.987	11.3584	1.85251	
182	1.51667	-173.485	-0.625523	15.9919	-158.435	2.16232	-17.9922	-160.307	-2.96629	-50.3257	-174.229	-17.0998	-66.4049	-187.854	27.7858	-56.1191	-184.022	33.3315	-79.1125	-182.479	40.9612	-107.203	-196.882	3.94346	-70.7879	-182.746	-8.85962	-96.9231	-166.336	-25.239	-113.539	-193.908	-23.5583	-59.2	-173.025	-45.1301	-54.6581	-161.628	-52.9503	-22.8355	-205.96	-40.6813	-49.4501	-185.131	-52.4746	-39.8461	-171.827	-45.4486	-12.1941	-229.904	-4.47636	-14.8697	-233.114	-9.3918	18.0061	-207.104	13.3674	7.16572	
183	1.525	-168.575	-2.19542	18.1564	-150.423	-1.36469	-13.1696	-151.676	-4.28994	-44.4479	-171.651	-16.6581	-60.333	-175.628	28.2528	-54.5856	-165.215	37.2217	-78.7955	-161.798	43.2903	-99.03	-188.823	6.08752	-65.7901	-172.099	-6.01088	-93.6438	-154.201	-25.9182	-112.091	-190.217	-21.5675	-55.7414	-171.375	-47.5366	-50.7824	-161.537	-53.4438	-21.6294	-203.809	-36.5141	-47.5879	-179.737	-46.2877	-35.9641	-169.888	-44.845	-10.3617	-220.294	3.08191	-10.7854	-230.525	-5.04657	17.527	-199.521	14.9133	11.8759	
184	1.53333	-158.046	-3.03253	20.9994	-141.003	-6.12976	-7.28408	-144.193	-9.23348	-37.89	-157.244	-17.1589	-55.8901	-157.092	25.9177	-48.1051	-145.742	30.4838	-68.1908	-141.631	37.7096	-91.3003	-171.347	4.65132	-65.5825	-155.695	-3.55919	-84.372	-139.528	-25.1259	-104.904	-179.444	-23.4996	-53.4397	-164.15	-46.6992	-45.1998	-161.484	-55.5488	-11.2623	-193.008	-33.7636	-44.9663	-173.976	-46.3517	-29.6132	-174.373	-43.8386	-0.822717	-210.608	8.14625	-11.1949	-218.487	-0.147478	19.7818	-186.736	17.8165	12.6484	
